<svg width="100" height="98" viewBox="0 0 100 98" fill="none" xmlns="http://www.w3.org/2000/svg">
<path d="M70.416 24.4228C70.0157 24.562 69.598 24.7099 69.1629 24.8666C68.7452 25.0232 68.3101 25.1798 67.8576 25.3365C66.9526 25.7194 66.1259 26.111 65.3775 26.5113C68.3188 28.2691 69.7808 30.8536 69.7634 34.2648C69.7634 35.6397 69.424 36.9102 68.7452 38.0763C68.0839 39.2075 67.1963 40.2953 66.0824 41.3395C63.8025 43.341 61.3746 44.3504 58.7988 44.3678C57.5631 44.3678 56.6233 44.1068 55.9793 43.5847C55.3006 43.0973 54.9612 42.436 54.9612 41.6006C54.9786 40.4345 55.5877 39.808 56.7886 39.721C57.363 39.7384 57.8242 40.0255 58.1722 40.5825C57.7371 40.9653 57.5196 41.4266 57.5196 41.9661C57.537 43.1844 58.181 43.7761 59.4514 43.7413C60.3565 43.7413 61.2876 43.3845 62.2448 42.6709C63.0976 42.0096 63.8808 41.1307 64.5944 40.0342C66.1085 37.6847 66.8743 35.0654 66.8917 32.1763C66.8917 29.6875 66.1259 27.9645 64.5944 27.0073C61.8271 28.6955 59.3818 31.1843 57.2585 34.4736C56.1795 36.1444 55.1004 37.8674 54.0214 39.6426C52.9423 41.4004 51.8459 43.2279 50.732 45.1249C48.5739 48.8842 46.1025 52.3563 43.3179 55.5413C40.5158 58.7436 37.1481 61.0845 33.2148 62.5638V62.6682C36.1039 63.0859 39.0539 63.2948 42.0648 63.2948C52.5072 63.173 60.4609 58.5261 65.9258 49.3541L66.3435 49.563C63.2281 54.4013 59.8082 58.0039 56.0838 60.3709C52.2897 62.7553 47.46 63.9474 41.5949 63.9474C38.4795 63.93 35.399 63.5733 32.3533 62.8771C32.2837 62.8771 32.1618 62.8858 31.9878 62.9032C31.8312 62.9206 31.631 62.9467 31.3874 62.9815C31.1437 63.0337 30.8565 63.0946 30.5259 63.1643C30.2126 63.2339 29.8558 63.3122 29.4555 63.3992C27.8543 63.7473 25.6614 63.93 22.8768 63.9474C21.119 63.9474 19.8746 63.7821 19.1436 63.4514C18.3604 63.173 17.9688 62.8162 17.9688 62.3811C17.9688 61.8938 18.2038 61.5196 18.6737 61.2585C19.074 60.98 19.7962 60.8408 20.8405 60.8408C23.8166 60.8408 27.6194 61.3542 32.2489 62.3811C33.4323 62.1026 34.6419 61.45 35.8776 60.4231C37.0263 59.3963 38.2011 58.1258 39.4019 56.6116C41.8037 53.4615 44.249 49.8675 46.7378 45.8298C49.2788 41.7224 51.9677 37.85 54.8046 34.2126C55.5007 33.325 56.2056 32.4983 56.9192 31.7325C57.6501 30.9667 58.3898 30.2444 59.1382 29.5657C60.6523 28.2604 62.2013 27.2596 63.7851 26.5635C63.3848 26.3894 62.9671 26.2415 62.532 26.1197C62.0969 25.9978 61.627 25.9021 61.1222 25.8325C60.0432 25.7281 59.0599 25.6759 58.1722 25.6759C51.872 25.7629 45.7022 27.7556 39.663 31.6542C36.7913 33.5164 34.4592 35.7789 32.6666 38.4418C30.8043 41.0872 29.8645 44.0285 29.8471 47.2656C29.8471 50.7987 31.4309 52.5826 34.5984 52.6174C35.9907 52.6174 37.2699 52.2432 38.436 51.4948C39.6021 50.8161 40.6202 49.9372 41.4904 48.8581C43.3179 46.4911 44.2403 44.0024 44.2577 41.3917V39.3555H44.9103V41.3917C44.8929 44.159 43.8922 46.7957 41.9081 49.3019C40.9683 50.4506 39.8806 51.373 38.6449 52.0692C37.357 52.8523 35.9385 53.2439 34.3896 53.2439C32.4925 53.2439 30.9958 52.5826 29.8993 51.2599C28.7158 49.972 28.1241 48.4056 28.1241 46.5608C28.1241 44.0894 28.9769 41.5571 30.6825 38.9639C32.3359 36.4751 34.5636 34.1778 37.3657 32.0719C43.2134 27.512 50.2534 25.1624 58.4855 25.0232C59.7908 25.0406 60.9482 25.145 61.9576 25.3365C62.9671 25.5279 63.8634 25.7977 64.6466 26.1458C65.5864 25.7455 66.5175 25.3887 67.4399 25.0754C68.3797 24.7447 69.337 24.4576 70.3116 24.2139L70.416 24.4228Z" fill="#205CA4"/>
<path d="M69.3581 54.043C69.3755 54.3911 69.3842 54.7305 69.3842 55.0611C69.4016 55.3744 69.4103 55.6964 69.4103 56.0271C69.3755 58.8813 68.1311 61.3266 65.6771 63.3629C63.2231 65.4688 59.9947 66.5391 55.9917 66.5739C50.1788 66.4173 47.2723 64.0416 47.2723 59.447C47.1679 55.8095 49.6653 52.3722 54.7647 49.1351C59.8989 45.8457 68.862 44.1314 81.654 43.9921C83.6903 44.0618 85.509 44.1227 87.1102 44.1749C88.7114 44.2271 90.1211 44.2793 91.3394 44.3315C92.314 44.3315 93.1842 44.2532 93.95 44.0966C94.2981 44.0618 94.6201 44.0357 94.916 44.0183C95.2118 44.0008 95.4816 43.9921 95.7252 43.9921C96.1603 43.9921 96.5519 44.1227 96.9 44.3837C97.2481 44.6274 97.4221 45.019 97.4221 45.5585C97.4221 45.8892 97.3351 46.1154 97.1611 46.2373C96.9348 46.4287 96.5954 46.5767 96.1429 46.6811C95.6556 46.7681 94.9769 46.829 94.1067 46.8638C93.2365 46.8986 92.1661 46.9073 90.8956 46.8899C88.4242 46.8899 86.3618 47.3163 84.7085 48.1691C83.8731 48.6042 83.0725 49.1525 82.3067 49.8138C81.5409 50.4578 80.8099 51.2322 80.1138 52.1373C79.4176 53.0249 78.6953 54.0169 77.947 55.1134C77.216 56.1924 76.4589 57.3933 75.6757 58.716C75.2754 59.3774 74.8577 60.0648 74.4226 60.7784C74.0049 61.492 73.5698 62.2403 73.1173 63.0235C72.63 63.8067 72.1166 64.616 71.5771 65.4514C71.055 66.2694 70.498 67.1396 69.9063 68.062C69.1405 69.2977 68.1746 70.6552 67.0085 72.1345C66.3994 72.9177 65.738 73.6661 65.0244 74.3797C64.3283 75.0932 63.5625 75.7807 62.7271 76.4421C61.8917 77.1382 61.0128 77.7735 60.0904 78.3478C59.168 78.9047 58.1759 79.4095 57.1143 79.862C54.9562 80.8192 52.5718 81.3065 49.9612 81.3239C47.8031 81.3239 45.7494 80.8192 43.8002 79.8097C42.8777 79.2876 42.1468 78.6002 41.6072 77.7474C40.9633 76.8946 40.6413 75.859 40.6413 74.6407C40.6413 73.8401 40.8763 73.1614 41.3462 72.6045C41.7987 72.0823 42.4252 71.8126 43.2258 71.7952C44.4789 71.8822 45.1403 72.5435 45.2099 73.7792C45.2099 74.3188 45.0271 74.7278 44.6617 75.0062C44.3484 75.3717 43.9394 75.5545 43.4347 75.5545C43.2606 75.5545 43.0431 75.5196 42.782 75.45C43.0257 77.1556 43.8524 78.4348 45.2621 79.2876C46.6544 80.21 48.3948 80.6713 50.4833 80.6713C54.4341 80.6016 57.8366 78.9831 60.6908 75.8155C62.1006 74.2491 63.4581 72.5697 64.7634 70.777C66.0861 68.9844 67.3653 67.0439 68.601 64.9554C69.8541 62.8669 71.1333 60.8741 72.4386 58.9771C73.7613 57.08 75.1275 55.2613 76.5372 53.5209C79.3045 50.1097 82.5939 47.969 86.4054 47.0988V46.9944C84.6649 46.9421 82.9245 46.8812 81.1841 46.8116C79.4437 46.742 77.6946 46.6637 75.9368 46.5767C57.4537 46.9073 48.1164 51.1974 47.9249 59.447C48.012 63.7632 50.7705 65.9213 56.2006 65.9213C59.9599 65.8865 62.9969 64.8683 65.3116 62.8669C67.6089 60.9698 68.7663 58.7247 68.7837 56.1315C68.7837 55.7834 68.775 55.4353 68.7576 55.0872C68.7576 54.7392 68.7489 54.3911 68.7315 54.043H69.3581Z" fill="#205CA4"/>
<path d="M11.2416 48.8275C11.2043 49.2481 11.0843 49.5985 10.8815 49.8788C10.6792 50.1539 10.4338 50.3546 10.1453 50.4808C9.85723 50.6017 9.56262 50.6489 9.26148 50.6222L9.23811 50.6201L9.29057 50.0282L9.32172 50.031C9.51902 50.0485 9.72046 50.0192 9.92605 49.9433C10.1316 49.8673 10.3109 49.734 10.4638 49.5435C10.6172 49.3478 10.708 49.0916 10.736 48.7748C10.7692 48.401 10.7005 48.0836 10.53 47.8225C10.3548 47.5558 10.1036 47.4079 9.77652 47.379C9.50133 47.3546 9.27804 47.4237 9.10663 47.5865C8.93522 47.7492 8.81136 47.9659 8.73505 48.2364L8.49765 49.0553C8.41385 49.3514 8.26019 49.6387 8.03666 49.9171C7.81313 50.1956 7.45993 50.3134 6.97706 50.2706C6.67592 50.244 6.41756 50.1478 6.20199 49.9822C5.98122 49.8161 5.82027 49.5951 5.71912 49.3193C5.61325 49.0378 5.57549 48.7257 5.60586 48.383C5.64083 47.9884 5.75121 47.6581 5.93701 47.3919C6.12282 47.1258 6.35173 46.9342 6.62376 46.817C6.8906 46.6994 7.16161 46.6527 7.4368 46.6771L7.46016 46.6792L7.40771 47.2711L7.38435 47.269C7.2182 47.2543 7.04317 47.2806 6.85928 47.3481C6.67065 47.4099 6.50293 47.531 6.3561 47.7117C6.20973 47.8871 6.12274 48.1305 6.09514 48.4421C6.06247 48.8107 6.13535 49.1102 6.31379 49.3406C6.49223 49.5709 6.72942 49.6992 7.02537 49.7255C7.26941 49.7471 7.47621 49.6869 7.64577 49.545C7.8158 49.3978 7.9418 49.1866 8.02376 48.9113L8.22951 48.1838C8.5208 47.1997 9.04808 46.7414 9.81132 46.809C10.1177 46.8362 10.3859 46.9385 10.6162 47.1158C10.8412 47.2928 11.0112 47.5302 11.126 47.8282C11.2362 48.1206 11.2747 48.4537 11.2416 48.8275Z" fill="#205CA4"/>
<path d="M10.7469 40.979L10.2106 43.2705L11.6972 44.2609L11.5725 44.7938L6.71738 41.5214L6.83677 41.0113L12.6452 40.2108L12.5205 40.7437L10.7469 40.979ZM10.2756 41.0373L7.45731 41.4135L7.45018 41.444L9.81408 43.0091L10.2756 41.0373Z" fill="#205CA4"/>
<path d="M7.89272 36.7985L8.09455 36.2897L13.3409 36.4869L13.3582 36.4433L9.40357 32.9902L9.6054 32.4814L13.9806 36.2949L13.6923 37.0217L7.89272 36.7985Z" fill="#205CA4"/>
<path d="M11.6516 29.3108L13.3465 30.2845L14.5617 28.1692L14.9549 28.3951L13.7398 30.5104L15.5432 31.5464L16.9141 29.1599L17.3412 29.4053L15.7015 32.2596L10.9558 29.5333L12.5954 26.679L13.0225 26.9244L11.6516 29.3108Z" fill="#205CA4"/>
<path d="M19.4929 18.3922L18.3816 19.6221L22.077 22.9612L21.7153 23.3615L18.0199 20.0223L16.9086 21.2522L16.5431 20.922L19.1274 18.062L19.4929 18.3922Z" fill="#205CA4"/>
<path d="M24.5666 13.1065L28.0461 17.3313L27.6296 17.6743L26.0192 15.7188L23.7257 17.6076L25.3362 19.5631L24.9197 19.9061L21.4403 15.6813L21.8568 15.3383L23.4424 17.2636L25.7358 15.3748L24.1502 13.4495L24.5666 13.1065Z" fill="#205CA4"/>
<path d="M28.2358 11.0554L29.2451 12.7294L31.3342 11.4698L31.5683 11.8582L29.4792 13.1178L30.5531 14.8989L32.91 13.4778L33.1644 13.8996L30.3454 15.5993L27.5194 10.9122L30.3384 9.21254L30.5927 9.63438L28.2358 11.0554Z" fill="#205CA4"/>
<path d="M36.8519 5.99301L38.7203 5.36752C39.1849 5.21198 39.6258 5.18256 40.0429 5.27928C40.4634 5.36939 40.8337 5.58072 41.1539 5.91327C41.4774 6.23923 41.7269 6.66418 41.9023 7.18812C42.0777 7.71207 42.1343 8.20155 42.0723 8.65657C42.0152 9.10994 41.8467 9.50164 41.5669 9.83167C41.2921 10.16 40.9199 10.4028 40.4503 10.56L38.5893 11.183L36.8519 5.99301ZM40.2321 10.1054C40.5979 9.98292 40.8919 9.7938 41.1141 9.53802C41.3396 9.27565 41.4752 8.95817 41.5208 8.58558C41.5665 8.213 41.5149 7.80428 41.3659 7.35942C41.217 6.91456 41.013 6.55961 40.7539 6.29456C40.4931 6.02457 40.1945 5.85517 39.8582 5.78638C39.5251 5.71099 39.1757 5.73452 38.8099 5.85697L37.5124 6.29133L38.9346 10.5397L40.2321 10.1054Z" fill="#205CA4"/>
<path d="M47.6957 6.9914L45.379 7.40561L45.0578 9.16279L44.519 9.25912L45.603 3.50539L46.1187 3.41319L49.1524 8.43069L48.6136 8.52702L47.6957 6.9914ZM47.4557 6.58158L45.9949 4.14223L45.9641 4.14773L45.4622 6.938L47.4557 6.58158Z" fill="#205CA4"/>
<path d="M54.3644 3.08896L52.708 3.15113L52.8948 8.12817L52.3557 8.1484L52.1689 3.17136L50.5124 3.23353L50.494 2.7413L54.3459 2.59673L54.3644 3.08896Z" fill="#205CA4"/>
<path d="M58.1113 3.15577L57.9191 5.10099L60.3468 5.34079L60.3022 5.79208L57.8745 5.55228L57.6701 7.62199L60.409 7.89254L60.3605 8.38274L57.0848 8.05915L57.6228 2.61254L60.8986 2.93612L60.8501 3.42632L58.1113 3.15577Z" fill="#205CA4"/>
</svg>
