<svg width="81" height="90" viewBox="0 0 81 90" fill="none" xmlns="http://www.w3.org/2000/svg">
<path d="M53.3565 16.1484C52.9562 16.2876 52.5385 16.4355 52.1034 16.5922C51.6857 16.7488 51.2506 16.9054 50.7981 17.0621C49.893 17.445 49.0663 17.8365 48.318 18.2368C51.2593 19.9947 52.7212 22.5792 52.7038 25.9904C52.7038 27.3653 52.3644 28.6358 51.6857 29.8019C51.0243 30.9331 50.1367 32.0209 49.0228 33.0651C46.7429 35.0666 44.315 36.076 41.7392 36.0934C40.5035 36.0934 39.5637 35.8324 38.9198 35.3102C38.241 34.8229 37.9016 34.1616 37.9016 33.3262C37.919 32.1601 38.5282 31.5336 39.7291 31.4465C40.3034 31.4639 40.7646 31.7511 41.1127 32.308C40.6776 32.6909 40.46 33.1521 40.46 33.6917C40.4774 34.91 41.1214 35.5017 42.3919 35.4669C43.2969 35.4669 44.228 35.1101 45.1852 34.3965C46.038 33.7352 46.8212 32.8563 47.5348 31.7598C49.0489 29.4103 49.8147 26.7909 49.8321 23.9019C49.8321 21.4131 49.0663 19.6901 47.5348 18.7329C44.7675 20.4211 42.3223 22.9098 40.199 26.1992C39.1199 27.87 38.0409 29.593 36.9618 31.3682C35.8828 33.126 34.7863 34.9535 33.6724 36.8505C31.5143 40.6098 29.0429 44.0819 26.2583 47.2669C23.4562 50.4692 20.0885 52.8101 16.1552 54.2894V54.3938C19.0443 54.8115 21.9943 55.0204 25.0052 55.0204C35.4477 54.8985 43.4013 50.2517 48.8662 41.0797L49.2839 41.2886C46.1686 46.1269 42.7487 49.7295 39.0242 52.0965C35.2301 54.4808 30.4005 55.673 24.5353 55.673C21.42 55.6556 18.3394 55.2988 15.2937 54.6027C15.2241 54.6027 15.1023 54.6114 14.9282 54.6288C14.7716 54.6462 14.5715 54.6723 14.3278 54.7071C14.0841 54.7593 13.797 54.8202 13.4663 54.8898C13.153 54.9595 12.7962 55.0378 12.3959 55.1248C10.7948 55.4729 8.60185 55.6556 5.8172 55.673C4.05939 55.673 2.81499 55.5077 2.08402 55.177C1.30084 54.8985 0.909247 54.5418 0.909247 54.1067C0.909247 53.6193 1.1442 53.2452 1.61411 52.9841C2.01441 52.7056 2.73668 52.5664 3.78092 52.5664C6.75702 52.5664 10.5598 53.0798 15.1893 54.1067C16.3728 53.8282 17.5824 53.1755 18.818 52.1487C19.9667 51.1219 21.1415 49.8514 22.3424 48.3372C24.7441 45.1871 27.1894 41.5931 29.6782 37.5554C32.2192 33.448 34.9081 29.5756 37.745 25.9381C38.4412 25.0505 39.146 24.2238 39.8596 23.4581C40.5906 22.6923 41.3302 21.97 42.0786 21.2913C43.5928 19.986 45.1417 18.9852 46.7255 18.2891C46.3252 18.115 45.9075 17.9671 45.4724 17.8453C45.0373 17.7234 44.5674 17.6277 44.0627 17.5581C42.9836 17.4537 42.0003 17.4014 41.1127 17.4014C34.8124 17.4885 28.6427 19.4812 22.6034 23.3797C19.7318 25.242 17.3996 27.5045 15.607 30.1673C13.7448 32.8128 12.8049 35.7541 12.7875 38.9912C12.7875 42.5242 14.3713 44.3082 17.5388 44.343C18.9312 44.343 20.2104 43.9688 21.3764 43.2204C22.5425 42.5416 23.5607 41.6627 24.4309 40.5837C26.2583 38.2167 27.1807 35.7279 27.1981 33.1173V31.0811H27.8508V33.1173C27.8334 35.8846 26.8326 38.5213 24.8486 41.0275C23.9087 42.1762 22.821 43.0986 21.5853 43.7947C20.2974 44.5779 18.879 44.9695 17.33 44.9695C15.433 44.9695 13.9362 44.3082 12.8397 42.9854C11.6563 41.6975 11.0645 40.1312 11.0645 38.2863C11.0645 35.815 11.9173 33.2827 13.6229 30.6895C15.2763 28.2007 17.504 25.9033 20.3061 23.7974C26.1539 19.2376 33.1938 16.888 41.426 16.7488C42.7313 16.7662 43.8886 16.8706 44.8981 17.0621C45.9075 17.2535 46.8038 17.5233 47.587 17.8714C48.5268 17.4711 49.4579 17.1143 50.3804 16.801C51.3202 16.4703 52.2774 16.1832 53.252 15.9395L53.3565 16.1484Z" fill="white"/>
<path d="M52.2982 45.7691C52.3156 46.1172 52.3243 46.4565 52.3243 46.7872C52.3418 47.1005 52.3505 47.4225 52.3505 47.7531C52.3156 50.6074 51.0713 53.0527 48.6173 55.089C46.1633 57.1949 42.9348 58.2652 38.9319 58.3C33.1189 58.1434 30.2125 55.7677 30.2125 51.173C30.108 47.5356 32.6055 44.0983 37.7049 40.8611C42.8391 37.5718 51.8022 35.8575 64.5942 35.7182C66.6305 35.7878 68.4492 35.8488 70.0504 35.901C71.6516 35.9532 73.0613 36.0054 74.2796 36.0576C75.2542 36.0576 76.1244 35.9793 76.8902 35.8226C77.2383 35.7878 77.5603 35.7617 77.8561 35.7443C78.152 35.7269 78.4218 35.7182 78.6654 35.7182C79.1005 35.7182 79.4921 35.8488 79.8402 36.1098C80.1883 36.3535 80.3623 36.7451 80.3623 37.2846C80.3623 37.6153 80.2753 37.8415 80.1013 37.9633C79.875 38.1548 79.5356 38.3027 79.0831 38.4072C78.5958 38.4942 77.9171 38.5551 77.0468 38.5899C76.1766 38.6247 75.1063 38.6334 73.8358 38.616C71.3644 38.616 69.302 39.0424 67.6486 39.8952C66.8132 40.3303 66.0127 40.8785 65.2469 41.5399C64.4811 42.1838 63.7501 42.9583 63.054 43.8633C62.3578 44.7509 61.6355 45.743 60.8872 46.8394C60.1562 47.9185 59.3991 49.1194 58.6159 50.4421C58.2156 51.1034 57.7979 51.7909 57.3628 52.5045C56.9451 53.218 56.51 53.9664 56.0575 54.7496C55.5702 55.5328 55.0568 56.3421 54.5173 57.1775C53.9951 57.9954 53.4382 58.8657 52.8465 59.7881C52.0807 61.0238 51.1148 62.3813 49.9487 63.8606C49.3395 64.6438 48.6782 65.3922 47.9646 66.1057C47.2685 66.8193 46.5027 67.5068 45.6673 68.1681C44.8319 68.8643 43.953 69.4995 43.0306 70.0739C42.1082 70.6308 41.1161 71.1355 40.0545 71.588C37.8964 72.5453 35.512 73.0326 32.9014 73.05C30.7433 73.05 28.6896 72.5453 26.7403 71.5358C25.8179 71.0137 25.087 70.3262 24.5474 69.4734C23.9035 68.6206 23.5815 67.5851 23.5815 66.3668C23.5815 65.5662 23.8165 64.8875 24.2864 64.3305C24.7389 63.8084 25.3654 63.5386 26.166 63.5212C27.4191 63.6083 28.0805 64.2696 28.1501 65.5053C28.1501 66.0448 27.9673 66.4538 27.6018 66.7323C27.2886 67.0978 26.8796 67.2805 26.3749 67.2805C26.2008 67.2805 25.9833 67.2457 25.7222 67.1761C25.9659 68.8817 26.7926 70.1609 28.2023 71.0137C29.5946 71.9361 31.335 72.3973 33.4235 72.3973C37.3742 72.3277 40.7767 70.7091 43.631 67.5416C45.0407 65.9752 46.3983 64.2957 47.7036 62.5031C49.0263 60.7105 50.3055 58.7699 51.5412 56.6814C52.7943 54.5929 54.0735 52.6002 55.3788 50.7031C56.7015 48.8061 58.0677 46.9874 59.4774 45.247C62.2447 41.8358 65.534 39.6951 69.3455 38.8248V38.7204C67.6051 38.6682 65.8647 38.6073 64.1243 38.5377C62.3839 38.4681 60.6348 38.3897 58.877 38.3027C40.3939 38.6334 31.0566 42.9235 30.8651 51.173C30.9521 55.4893 33.7107 57.6474 39.1408 57.6474C42.9 57.6126 45.9371 56.5944 48.2518 54.5929C50.5491 52.6959 51.7065 50.4508 51.7239 47.8576C51.7239 47.5095 51.7152 47.1614 51.6978 46.8133C51.6978 46.4652 51.6891 46.1172 51.6717 45.7691H52.2982Z" fill="white"/>
</svg>
